<svg width="24" height="24" viewBox="0 0 24 24" fill="none" xmlns="http://www.w3.org/2000/svg">
<path d="M8.5 22C9.32843 22 10 21.3284 10 20.5C10 19.6716 9.32843 19 8.5 19C7.67157 19 7 19.6716 7 20.5C7 21.3284 7.67157 22 8.5 22Z" stroke="black" stroke-linecap="round" stroke-linejoin="round"/>
<path d="M20.5 22C21.3284 22 22 21.3284 22 20.5C22 19.6716 21.3284 19 20.5 19C19.6716 19 19 19.6716 19 20.5C19 21.3284 19.6716 22 20.5 22Z" stroke="black" stroke-linecap="round" stroke-linejoin="round"/>
<path d="M1 2H5L7.68 15.39C7.77144 15.8504 8.02191 16.264 8.38755 16.5583C8.75318 16.8526 9.2107 17.009 9.68 17H19.4C19.8693 17.009 20.3268 16.8526 20.6925 16.5583C21.0581 16.264 21.3086 15.8504 21.4 15.39L23 7H6" stroke="black" stroke-linecap="round" stroke-linejoin="round"/>
</svg>
